<svg xmlns="http://www.w3.org/2000/svg" width="68" height="68" viewBox="0 0 68 68">
  <path id="plate" d="M36,2A34,34,0,1,0,70,36,34,34,0,0,0,36,2Zm0,63.143A29.143,29.143,0,1,1,65.143,36,29.143,29.143,0,0,1,36,65.143Zm0-51A21.857,21.857,0,1,0,57.857,36,21.857,21.857,0,0,0,36,14.143ZM36,53A17,17,0,1,1,53,36,17,17,0,0,1,36,53ZM50.571,36A14.571,14.571,0,0,1,36,50.571a2.429,2.429,0,1,1,0-4.857A9.714,9.714,0,0,0,45.714,36a2.429,2.429,0,1,1,4.857,0ZM34.057,26.48a9.714,9.714,0,0,0-5.829,3.691,2.429,2.429,0,0,1-3.886-2.914,14.571,14.571,0,0,1,8.743-5.537,2.477,2.477,0,1,1,.971,4.857Z" transform="translate(-2 -2)" fill="#d9d9d9"/>
</svg>
