<svg xmlns="http://www.w3.org/2000/svg" width="128" height="128" viewBox="0 0 128 128">
  <g id="restaurant" transform="translate(-1 -1)">
    <path id="Path_1" data-name="Path 1" d="M65,1a64,64,0,1,0,64,64A64.072,64.072,0,0,0,65,1Zm0,126a62,62,0,1,1,62-62A62.071,62.071,0,0,1,65,127Z" fill="#d2d2d2"/>
    <path id="Path_2" data-name="Path 2" d="M65,9a56,56,0,1,0,56,56A56.063,56.063,0,0,0,65,9Zm0,110a54,54,0,1,1,54-54A54.062,54.062,0,0,1,65,119Z" fill="#d2d2d2"/>
    <path id="Path_3" data-name="Path 3" d="M96.477,45.143l-10.6,10.612L84.458,54.34,96.773,42.024V37.78H92.529L80.214,50.1,78.088,47.97,88.7,37.367a5.017,5.017,0,0,0,0-7.072L88,29.584,70.666,46.913a11.473,11.473,0,0,0-2.728,11.918l-6.251,6.251-1.906-1.906-1.414-1.414L30.79,34.186l-.707.707c-2.719,2.718-5.219,6.271-3.152,12.006,1.808,5.018,6.924,11.563,16.588,21.227l5.656,5.657,3.536-3.536,1.906,1.906-19.31,19.31a5,5,0,0,0,7.074,7.074L61.69,79.227,81,98.532a5,5,0,1,0,7.07-7.071l-19.3-19.3L75.015,65.9a11.56,11.56,0,0,0,3.789.637,11.416,11.416,0,0,0,8.127-3.363l17.33-17.329-.712-.708A5.018,5.018,0,0,0,96.477,45.143ZM44.933,66.712c-9.318-9.317-14.44-15.829-16.12-20.491-1.451-4.026-.316-6.663,1.993-9.191L56.953,63.177l-7.778,7.778ZM40.967,97.123a3,3,0,1,1-4.246-4.246l19.31-19.31,4.246,4.246Zm45.685,0a3.073,3.073,0,0,1-4.242,0l-20-20c-.006-.006-.008-.014-.014-.02s-.014-.008-.02-.014l-5.628-5.628c-.005-.005-.006-.012-.012-.017s-.012-.007-.017-.012l-2.6-2.6,4.242-4.243,2.6,2.6c.006.006.008.014.014.02s.014.008.02.014l5.626,5.626c.006.006.008.014.014.02s.014.008.02.014L86.651,92.875A3,3,0,0,1,86.651,97.118ZM85.517,61.763A9.429,9.429,0,0,1,78.8,64.54a9.6,9.6,0,0,1-3.66-.725l-.616-.253-7.18,7.18L63.1,66.5l7.182-7.182-.256-.617a9.483,9.483,0,0,1,2.053-10.37L87.87,32.538a3.013,3.013,0,0,1-.584,3.415L75.26,47.97l4.954,4.954L93.358,39.78h1.416V41.2L81.63,54.34l4.243,4.245L97.891,46.557a3.005,3.005,0,0,1,3.415-.583Z" fill="#d2d2d2"/>
  </g>
</svg>
