<svg xmlns="http://www.w3.org/2000/svg" width="263" height="511.04" viewBox="0 0 263 511.04">
  <g id="svg-pattern" transform="translate(-1681)">
    <rect id="Rectangle_3" data-name="Rectangle 3" width="208" height="494" transform="translate(1712)" fill="red"/>
    <path id="dish" d="M40.228,9.184A3.184,3.184,0,0,1,43.412,6h6.369a3.184,3.184,0,1,1,0,6.369H43.412A3.184,3.184,0,0,1,40.228,9.184ZM90.828,55.2A26.08,26.08,0,0,1,67.391,69.688H25.8A26.08,26.08,0,0,1,2.334,55.2,3.184,3.184,0,0,1,5.2,50.581H8.575A40.505,40.505,0,0,1,36.279,18.2a34.646,34.646,0,0,1,20.667,0A40.505,40.505,0,0,1,84.618,50.581h3.375A3.184,3.184,0,0,1,90.828,55.2ZM14.976,50.581H78.218a34.455,34.455,0,0,0-23.15-26.3,28.245,28.245,0,0,0-16.909,0,34.455,34.455,0,0,0-23.182,26.3ZM81.848,56.95H11.218A19.743,19.743,0,0,0,25.8,63.319H67.391A19.743,19.743,0,0,0,81.975,56.95Z" transform="translate(1737.38 430.761) rotate(7)" fill="#fff"/>
    <path id="dish-2" data-name="dish" d="M40.228,9.184A3.184,3.184,0,0,1,43.412,6h6.369a3.184,3.184,0,1,1,0,6.369H43.412A3.184,3.184,0,0,1,40.228,9.184ZM90.828,55.2A26.08,26.08,0,0,1,67.391,69.688H25.8A26.08,26.08,0,0,1,2.334,55.2,3.184,3.184,0,0,1,5.2,50.581H8.575A40.505,40.505,0,0,1,36.279,18.2a34.646,34.646,0,0,1,20.667,0A40.505,40.505,0,0,1,84.618,50.581h3.375A3.184,3.184,0,0,1,90.828,55.2ZM14.976,50.581H78.218a34.455,34.455,0,0,0-23.15-26.3,28.245,28.245,0,0,0-16.909,0,34.455,34.455,0,0,0-23.182,26.3ZM81.848,56.95H11.218A19.743,19.743,0,0,0,25.8,63.319H67.391A19.743,19.743,0,0,0,81.975,56.95Z" transform="translate(1846.421 202.156)" fill="#fff"/>
    <g id="restaurant" transform="translate(1815 18)">
      <path id="Path_1" data-name="Path 1" d="M65,1a64,64,0,1,0,64,64A64.072,64.072,0,0,0,65,1Zm0,126a62,62,0,1,1,62-62A62.071,62.071,0,0,1,65,127Z" fill="#fff"/>
      <path id="Path_2" data-name="Path 2" d="M65,9a56,56,0,1,0,56,56A56.063,56.063,0,0,0,65,9Zm0,110a54,54,0,1,1,54-54A54.062,54.062,0,0,1,65,119Z" fill="#fff"/>
      <path id="Path_3" data-name="Path 3" d="M96.477,45.143l-10.6,10.612L84.458,54.34,96.773,42.024V37.78H92.529L80.214,50.1,78.088,47.97,88.7,37.367a5.017,5.017,0,0,0,0-7.072L88,29.584,70.666,46.913a11.473,11.473,0,0,0-2.728,11.918l-6.251,6.251-1.906-1.906-1.414-1.414L30.79,34.186l-.707.707c-2.719,2.718-5.219,6.271-3.152,12.006,1.808,5.018,6.924,11.563,16.588,21.227l5.656,5.657,3.536-3.536,1.906,1.906-19.31,19.31a5,5,0,0,0,7.074,7.074L61.69,79.227,81,98.532a5,5,0,1,0,7.07-7.071l-19.3-19.3L75.015,65.9a11.56,11.56,0,0,0,3.789.637,11.416,11.416,0,0,0,8.127-3.363l17.33-17.329-.712-.708A5.018,5.018,0,0,0,96.477,45.143ZM44.933,66.712c-9.318-9.317-14.44-15.829-16.12-20.491-1.451-4.026-.316-6.663,1.993-9.191L56.953,63.177l-7.778,7.778ZM40.967,97.123a3,3,0,1,1-4.246-4.246l19.31-19.31,4.246,4.246Zm45.685,0a3.073,3.073,0,0,1-4.242,0l-20-20c-.006-.006-.008-.014-.014-.02s-.014-.008-.02-.014l-5.628-5.628c-.005-.005-.006-.012-.012-.017s-.012-.007-.017-.012l-2.6-2.6,4.242-4.243,2.6,2.6c.006.006.008.014.014.02s.014.008.02.014l5.626,5.626c.006.006.008.014.014.02s.014.008.02.014L86.651,92.875A3,3,0,0,1,86.651,97.118ZM85.517,61.763A9.429,9.429,0,0,1,78.8,64.54a9.6,9.6,0,0,1-3.66-.725l-.616-.253-7.18,7.18L63.1,66.5l7.182-7.182-.256-.617a9.483,9.483,0,0,1,2.053-10.37L87.87,32.538a3.013,3.013,0,0,1-.584,3.415L75.26,47.97l4.954,4.954L93.358,39.78h1.416V41.2L81.63,54.34l4.243,4.245L97.891,46.557a3.005,3.005,0,0,1,3.415-.583Z" fill="#fff"/>
    </g>
    <g id="restaurant-2" data-name="restaurant" transform="matrix(0.921, -0.391, 0.391, 0.921, 1743.77, 319.565)">
      <path id="Path_1-2" data-name="Path 1" d="M65,1a64,64,0,1,0,64,64A64.072,64.072,0,0,0,65,1Zm0,126a62,62,0,1,1,62-62A62.071,62.071,0,0,1,65,127Z" fill="#fff"/>
      <path id="Path_2-2" data-name="Path 2" d="M65,9a56,56,0,1,0,56,56A56.063,56.063,0,0,0,65,9Zm0,110a54,54,0,1,1,54-54A54.062,54.062,0,0,1,65,119Z" fill="#fff"/>
      <path id="Path_3-2" data-name="Path 3" d="M96.477,45.143l-10.6,10.612L84.458,54.34,96.773,42.024V37.78H92.529L80.214,50.1,78.088,47.97,88.7,37.367a5.017,5.017,0,0,0,0-7.072L88,29.584,70.666,46.913a11.473,11.473,0,0,0-2.728,11.918l-6.251,6.251-1.906-1.906-1.414-1.414L30.79,34.186l-.707.707c-2.719,2.718-5.219,6.271-3.152,12.006,1.808,5.018,6.924,11.563,16.588,21.227l5.656,5.657,3.536-3.536,1.906,1.906-19.31,19.31a5,5,0,0,0,7.074,7.074L61.69,79.227,81,98.532a5,5,0,1,0,7.07-7.071l-19.3-19.3L75.015,65.9a11.56,11.56,0,0,0,3.789.637,11.416,11.416,0,0,0,8.127-3.363l17.33-17.329-.712-.708A5.018,5.018,0,0,0,96.477,45.143ZM44.933,66.712c-9.318-9.317-14.44-15.829-16.12-20.491-1.451-4.026-.316-6.663,1.993-9.191L56.953,63.177l-7.778,7.778ZM40.967,97.123a3,3,0,1,1-4.246-4.246l19.31-19.31,4.246,4.246Zm45.685,0a3.073,3.073,0,0,1-4.242,0l-20-20c-.006-.006-.008-.014-.014-.02s-.014-.008-.02-.014l-5.628-5.628c-.005-.005-.006-.012-.012-.017s-.012-.007-.017-.012l-2.6-2.6,4.242-4.243,2.6,2.6c.006.006.008.014.014.02s.014.008.02.014l5.626,5.626c.006.006.008.014.014.02s.014.008.02.014L86.651,92.875A3,3,0,0,1,86.651,97.118ZM85.517,61.763A9.429,9.429,0,0,1,78.8,64.54a9.6,9.6,0,0,1-3.66-.725l-.616-.253-7.18,7.18L63.1,66.5l7.182-7.182-.256-.617a9.483,9.483,0,0,1,2.053-10.37L87.87,32.538a3.013,3.013,0,0,1-.584,3.415L75.26,47.97l4.954,4.954L93.358,39.78h1.416V41.2L81.63,54.34l4.243,4.245L97.891,46.557a3.005,3.005,0,0,1,3.415-.583Z" fill="#fff"/>
    </g>
    <path id="plate" d="M52,2a50,50,0,1,0,50,50A50,50,0,0,0,52,2Zm0,92.857A42.857,42.857,0,1,1,94.857,52,42.857,42.857,0,0,1,52,94.857Zm0-75A32.143,32.143,0,1,0,84.143,52,32.143,32.143,0,0,0,52,19.857ZM52,77A25,25,0,1,1,77,52,25,25,0,0,1,52,77ZM73.429,52A21.429,21.429,0,0,1,52,73.429a3.571,3.571,0,1,1,0-7.143A14.286,14.286,0,0,0,66.286,52a3.571,3.571,0,1,1,7.143,0ZM49.143,38a14.286,14.286,0,0,0-8.571,5.429,3.571,3.571,0,0,1-5.714-4.286A21.429,21.429,0,0,1,47.714,31a3.642,3.642,0,1,1,1.429,7.143Z" transform="translate(1679 145)" fill="#fff"/>
  </g>
</svg>
