<svg xmlns="http://www.w3.org/2000/svg" width="100" height="100" viewBox="0 0 100 100">
  <path id="logo" d="M52,2a50,50,0,1,0,50,50A50,50,0,0,0,52,2Zm0,92.857A42.857,42.857,0,1,1,94.857,52,42.857,42.857,0,0,1,52,94.857Zm0-75A32.143,32.143,0,1,0,84.143,52,32.143,32.143,0,0,0,52,19.857ZM52,77A25,25,0,1,1,77,52,25,25,0,0,1,52,77ZM73.429,52A21.429,21.429,0,0,1,52,73.429a3.571,3.571,0,1,1,0-7.143A14.286,14.286,0,0,0,66.286,52a3.571,3.571,0,1,1,7.143,0ZM49.143,38a14.286,14.286,0,0,0-8.571,5.429,3.571,3.571,0,0,1-5.714-4.286A21.429,21.429,0,0,1,47.714,31a3.642,3.642,0,1,1,1.429,7.143Z" transform="translate(-2 -2)" fill="#ff005f"/>
</svg>
